<svg xmlns="http://www.w3.org/2000/svg" version="1.1" xmlns:xlink="http://www.w3.org/1999/xlink" xmlns:svgjs="http://svgjs.dev/svgjs" width="100%" height="100%" viewBox="0 0 1000 600"><rect width="1000" height="600" x="0" y="0" fill="#f5d5c2"/><g><circle r="166.66666666666666" cx="357.4589640299479" cy="379.681138317462" fill="#fbeaeb" transform="matrix(0.6551627072896128,0,0,0.6551627072896128,0,51.247045110323896)"/><path d="M296.2273266785575 304.68111810077346Q316.4570624712464 304.68111810077346 328.96503791404456 314.7640778964985Q341.5049214574621 324.87894579284296 341.5049214574621 345.5553949942032L341.5049214574621 345.5553949942032L341.5049214574621 348.0761349431345L322.42387728707104 348.0761349431345L322.42387728707104 344.8853248811962Q322.42387728707104 334.0684787712253 315.1807384464711 327.9740315529231Q307.9375996058711 321.91149243524035 296.70594818784826 321.91149243524035L296.70594818784826 321.91149243524035Q284.5170537512439 321.91149243524035 277.1781906087858 326.9529723331029Q269.8074193657083 331.9944522309654 269.8074193657083 342.10932012730984L269.8074193657083 342.10932012730984Q269.8074193657083 349.48009137038736 274.0511967480863 354.17058216143664Q278.32688223108363 358.89298105310536 284.64468615372147 361.76471010884984Q290.9624900763593 364.6364391645943 301.9707847900465 368.30587073582336L301.9707847900465 368.30587073582336Q315.97844096195564 372.9006372250145 324.49790382733096 377.0486903055343Q332.98545859208684 381.1648352854347 339.079905810389 389.2056766415193Q345.17435302869114 397.2465179976038 345.17435302869114 410.3607473521703L345.17435302869114 410.3607473521703Q345.17435302869114 433.33457979812613 331.83676696978904 443.99188540500006Q318.5310890115063 454.68109911249337 296.00396997422183 454.68109911249337L296.00396997422183 454.68109911249337Q274.40218585489947 454.68109911249337 260.74551878980355 444.11951780747756Q247.05694362408818 433.55793650246176 247.05694362408818 411.254174169513L247.05694362408818 411.254174169513L247.31220842904327 406.9146724852769L266.8399660081057 406.9146724852769L266.58470120315064 411.254174169513Q266.58470120315064 424.14504681974375 274.40218585489947 430.909564151053Q282.21967050664836 437.6740814823622 295.0786350562597 437.6740814823622L295.0786350562597 437.6740814823622Q309.78826944179536 437.6740814823622 317.7014783954023 431.4839099622019Q325.64659544962876 425.29373844204156 325.64659544962876 413.5515574141086L325.64659544962876 413.5515574141086Q325.64659544962876 405.7659808629791 321.4028180672508 400.6925928644972Q317.12713258425345 395.6511129666347 310.7136043597575 392.7793839108902Q304.26816803464203 389.9076548551457 293.00460851599985 386.2382232839167L293.00460851599985 386.2382232839167Q279.2203090484263 381.64345679472547 270.73275428367043 377.4954037142057Q262.24519951891455 373.3473506336859 256.2464766024705 365.2107849757432Q250.27966178664587 357.0423112171811 250.27966178664587 343.7366332588984L250.27966178664587 343.7366332588984Q250.27966178664587 324.4322323841716 263.1386263362573 314.54072119216283Q276.029498986488 304.68111810077346 296.2273266785575 304.68111810077346L296.2273266785575 304.68111810077346ZM421.2113568046811 452.16035916356213L402.60893414358077 452.16035916356213L402.60893414358077 392.2050380997413L355.73593433370695 307.42521475404044L376.41238353506725 307.42521475404044L413.1705154485966 374.4960422559837L413.87249366222295 374.4960422559837L449.92864736212584 307.42521475404044L467.86099991021916 307.42521475404044L421.2113568046811 392.2050380997413L421.2113568046811 452.16035916356213Z " fill="#" transform="matrix(0.6551627072896128,0,0,0.6551627072896128,0,51.247045110323896)"/><path d="M654.9522836658839 309.79720482732483Q674.492038888852 309.79720482732483 686.5734017396461 319.5362626356181Q698.6855843936311 329.3061402471022 698.6855843936311 349.27737271474155L698.6855843936311 349.27737271474155L698.6855843936311 351.71213716681484L680.2553420855318 351.71213716681484L680.2553420855318 348.63015684773467Q680.2553420855318 338.182243566053 673.2592467612199 332.29566115660987Q666.263151436908 326.4398985503576 655.4145807137459 326.4398985503576L655.4145807137459 326.4398985503576Q643.6414158948596 326.4398985503576 636.5528611609753 331.30942745450426Q629.4334866239002 336.1789563586509 629.4334866239002 345.94883397013496L629.4334866239002 345.94883397013496Q629.4334866239002 353.0682085072101 633.5325204482767 357.5987195762579Q637.6623740758442 362.1600504484965 643.7646951076229 364.93383273566866Q649.8670161394016 367.7076150228408 660.4998482402281 371.25189238978294L660.4998482402281 371.25189238978294Q674.0297418409899 375.6899440492584 682.258629292934 379.69651846406254Q690.4566969416871 383.67227307567595 696.3432793511301 391.4388634797579Q702.2298617605733 399.2054538838399 702.2298617605733 411.87239299525925L702.2298617605733 411.87239299525925Q702.2298617605733 434.06265129263636 689.3471840268182 444.356465558364Q676.4953260962541 454.6810996272825 654.7365450435482 454.6810996272825L654.7365450435482 454.6810996272825Q633.8715382833757 454.6810996272825 620.6806625177126 444.47974477112723Q607.4589669488588 434.27838991497197 607.4589669488588 412.73534748460173L607.4589669488588 412.73534748460173L607.7055253743852 408.5438542506527L626.5672449271557 408.5438542506527L626.3206865016293 412.73534748460173Q626.3206865016293 425.1865479736855 633.8715382833757 431.72034625013544Q641.422390065122 438.2541445265853 653.842770751015 438.2541445265853L653.842770751015 438.2541445265853Q668.0507000219745 438.2541445265853 675.6940112132932 432.27510270756983Q683.3681422078027 426.2960608885544 683.3681422078027 414.9543733143394L683.3681422078027 414.9543733143394Q683.3681422078027 407.43434133578387 679.2691083834261 402.5339926284464Q675.1392547558588 397.6644637242998 668.9444743145077 394.8906814371277Q662.7188740699658 392.11689914995554 651.8394835436129 388.57262178301335L651.8394835436129 388.57262178301335Q638.5253285651867 384.13457012353797 630.3272609164335 380.1279957087338Q622.1291932676802 376.1214212939296 616.3350702678097 368.2623714802752Q610.5717670711297 360.37250186343005 610.5717670711297 347.5206439328658L610.5717670711297 347.5206439328658Q610.5717670711297 328.8746630024309 622.9921477570227 319.32052401328247Q635.4433482461066 309.79720482732483 654.9522836658839 309.79720482732483L654.9522836658839 309.79720482732483ZM817.1569078590719 452.2463351752092L802.5175013434413 452.2463351752092L750.1546557222696 363.26956336336536Q747.9356298925319 359.4787275708968 744.9461089830241 352.94492929444687Q741.9565880735164 346.411131017997 741.0628137809831 344.19210518825923L741.0628137809831 344.19210518825923L740.3847781107855 344.4078438105949Q740.600516733121 346.6268696403326 740.9395345682199 352.2668936242493Q741.2785524033187 357.9377374113567 741.2785524033187 363.26956336336536L741.2785524033187 363.26956336336536L741.2785524033187 452.2463351752092L725.0673359249572 452.2463351752092L725.0673359249572 312.4477079017338L740.600516733121 312.4477079017338L792.5318851096216 400.3149667987087Q794.5351723170237 403.6435055433153 797.5246932265314 410.208123622956Q800.5142141360392 416.74192189940595 801.4079884285724 418.96094772914364L801.4079884285724 418.96094772914364L801.8702854764343 418.74520910680803L801.4079884285724 400.3149667987087L801.4079884285724 312.4477079017338L817.1569078590719 312.4477079017338L817.1569078590719 452.2463351752092ZM940.3128414095146 452.2463351752092L922.3448961492774 452.2463351752092L922.3448961492774 394.33592497969323L877.07060526199 312.4477079017338L897.0418377296293 312.4477079017338L932.5462510054326 377.23093420879843L933.2242866756302 377.23093420879843L968.050664281236 312.4477079017338L985.3713936744663 312.4477079017338L940.3128414095146 394.33592497969323L940.3128414095146 452.2463351752092ZM1020.4443297055983 342.40455660319276Q1036.624726380769 342.40455660319276 1044.853613832713 350.1711470072748Q1053.0516814814664 357.9377374113567 1053.0516814814664 372.3614053046518L1053.0516814814664 372.3614053046518L1053.0516814814664 432.70657995224104Q1053.0516814814664 436.03511869684763 1054.5926716410063 437.9459464946773Q1056.1644816037374 439.82595448931625 1058.383507433475 439.82595448931625L1058.383507433475 439.82595448931625L1065.2563235450239 439.82595448931625L1065.2563235450239 451.35256088267596Q1060.8182718855483 453.7873253347493 1054.1611943963353 453.7873253347493L1054.1611943963353 453.7873253347493Q1047.7198555294576 453.7873253347493 1043.1893444604098 450.2430479678071Q1038.6280135881711 446.6987706008649 1037.302762050967 440.7197287818494L1037.302762050967 440.7197287818494L1036.193249136098 440.7197287818494Q1031.9709360989582 447.3768062710626 1025.1905793969818 451.0135430475772Q1018.4410424981962 454.6810996272825 1009.9964164239167 454.6810996272825L1009.9964164239167 454.6810996272825Q999.1170258975637 454.6810996272825 990.4874810041393 448.23976076040503Q981.8271163075241 441.8292416967183 981.8271163075241 424.50851230348786L981.8271163075241 424.50851230348786Q981.8271163075241 403.8592441656509 995.7884871529571 396.21593297433213Q1009.780677801581 388.57262178301335 1036.193249136098 388.57262178301335L1036.193249136098 388.57262178301335L1036.193249136098 374.79616975672513Q1036.193249136098 366.38236348563635 1032.5256925563926 361.9443118261609Q1028.8581359766872 357.50626016668554 1019.3348167907296 357.50626016668554L1019.3348167907296 357.50626016668554Q1010.4587134717787 357.50626016668554 1006.5754182697377 362.3757890708321Q1002.6921230676968 367.2453179749788 1002.6921230676968 374.1489538897183L1002.6921230676968 374.1489538897183L1002.6921230676968 376.7994569641272L986.2651679669995 376.7994569641272Q986.049429344664 375.6899440492584 986.049429344664 372.14566668231623L986.049429344664 372.14566668231623Q986.049429344664 357.9377374113567 995.4802891210492 350.1711470072748Q1004.9111488974344 342.40455660319276 1020.4443297055983 342.40455660319276L1020.4443297055983 342.40455660319276ZM1036.193249136098 403.6435055433153Q1017.7630068279985 403.6435055433153 1008.547885673949 407.7425393676919Q999.3635843230901 411.87239299525925 999.3635843230901 423.398999388619L999.3635843230901 423.398999388619Q999.3635843230901 432.27510270756983 1003.0003210996048 436.03511869684763Q1006.6678776793102 439.82595448931625 1014.0029908387208 439.82595448931625L1014.0029908387208 439.82595448931625Q1022.6633555353361 439.82595448931625 1029.4128924341217 432.70657995224104Q1036.193249136098 425.6180252183567 1036.193249136098 413.19764453246376L1036.193249136098 413.19764453246376L1036.193249136098 403.6435055433153ZM1136.0494114742946 452.2463351752092L1133.8303856445568 439.82595448931625L1132.720872729688 439.82595448931625Q1128.9300369372195 447.13024784553613 1122.8277159054408 450.92108363800475Q1116.725394873662 454.6810996272825 1109.2053628951066 454.6810996272825L1109.2053628951066 454.6810996272825Q1093.4256236614162 454.6810996272825 1084.6727995552287 440.81218819142185Q1075.919975449041 426.9432767555612 1075.919975449041 398.55823801683306L1075.919975449041 398.55823801683306Q1075.919975449041 370.5738567195853 1084.8885381775642 356.48920666138906Q1093.8879207092782 342.40455660319276 1108.0958499802377 342.40455660319276L1108.0958499802377 342.40455660319276Q1115.8624403843196 342.40455660319276 1121.9647614160983 345.85637456056253Q1128.067082447877 349.27737271474155 1130.9333241446216 355.0406759114214L1130.9333241446216 355.0406759114214L1132.0428370594905 355.0406759114214L1132.0428370594905 304.6811174976518L1148.6855307825233 304.6811174976518L1148.6855307825233 452.2463351752092L1136.0494114742946 452.2463351752092ZM1112.7496402620486 357.50626016668554Q1102.9797626505647 357.50626016668554 1098.2026931559903 366.2590842728731Q1093.4256236614162 375.01190837906074 1093.4256236614162 394.76740222436445L1093.4256236614162 394.76740222436445L1093.4256236614162 402.3182540061108Q1093.4256236614162 422.07374785141457 1098.2026931559903 430.9498511703654Q1102.9797626505647 439.82595448931625 1112.7496402620486 439.82595448931625L1112.7496402620486 439.82595448931625Q1132.0428370594905 439.82595448931625 1132.0428370594905 402.3182540061108L1132.0428370594905 402.3182540061108L1132.0428370594905 395.44543789456213Q1132.0428370594905 357.50626016668554 1112.7496402620486 357.50626016668554L1112.7496402620486 357.50626016668554ZM1206.3802023557037 342.40455660319276Q1222.5914188340653 342.40455660319276 1230.7894864828181 350.1711470072748Q1239.0183739347622 357.9377374113567 1239.0183739347622 372.3614053046518L1239.0183739347622 372.3614053046518L1239.0183739347622 432.70657995224104Q1239.0183739347622 436.03511869684763 1240.5593640943025 437.9459464946773Q1242.1003542538424 439.82595448931625 1244.3193800835802 439.82595448931625L1244.3193800835802 439.82595448931625L1251.2230159983196 439.82595448931625L1251.2230159983196 451.35256088267596Q1246.784964338844 453.7873253347493 1240.127886849631 453.7873253347493L1240.127886849631 453.7873253347493Q1233.6865479827534 453.7873253347493 1229.1252171105152 450.2430479678071Q1224.5947060414674 446.6987706008649 1223.238634701072 440.7197287818494L1223.238634701072 440.7197287818494L1222.129121786203 440.7197287818494Q1217.937628552254 447.3768062710626 1211.157271850278 451.0135430475772Q1204.3769151483016 454.6810996272825 1195.9631088772126 454.6810996272825L1195.9631088772126 454.6810996272825Q1185.0837183508597 454.6810996272825 1176.4233536542447 448.23976076040503Q1167.7629889576294 441.8292416967183 1167.7629889576294 424.50851230348786L1167.7629889576294 424.50851230348786Q1167.7629889576294 403.8592441656509 1181.755179606253 396.21593297433213Q1195.7473702548768 388.57262178301335 1222.129121786203 388.57262178301335L1222.129121786203 388.57262178301335L1222.129121786203 374.79616975672513Q1222.129121786203 366.38236348563635 1218.4923850096884 361.9443118261609Q1214.824828429983 357.50626016668554 1205.2706894408348 357.50626016668554L1205.2706894408348 357.50626016668554Q1196.394586121884 357.50626016668554 1192.5112909198428 362.3757890708321Q1188.627995717802 367.2453179749788 1188.627995717802 374.1489538897183L1188.627995717802 374.1489538897183L1188.627995717802 376.7994569641272L1172.2010406171048 376.7994569641272Q1171.985301994769 375.6899440492584 1171.985301994769 372.14566668231623L1171.985301994769 372.14566668231623Q1171.985301994769 357.9377374113567 1181.4161617711543 350.1711470072748Q1190.8470215475395 342.40455660319276 1206.3802023557037 342.40455660319276L1206.3802023557037 342.40455660319276ZM1222.129121786203 403.6435055433153Q1203.7296992812946 403.6435055433153 1194.514578127245 407.7425393676919Q1185.2994569731954 411.87239299525925 1185.2994569731954 423.398999388619L1185.2994569731954 423.398999388619Q1185.2994569731954 432.27510270756983 1188.9670135529009 436.03511869684763Q1192.634570132606 439.82595448931625 1199.938863488826 439.82595448931625L1199.938863488826 439.82595448931625Q1208.5992281854412 439.82595448931625 1215.3795848874174 432.70657995224104Q1222.129121786203 425.6180252183567 1222.129121786203 413.19764453246376L1222.129121786203 413.19764453246376L1222.129121786203 403.6435055433153ZM1304.911113156696 452.2463351752092L1286.727429274123 452.2463351752092L1255.8768062801305 344.8393210552661L1274.2762287850392 344.8393210552661L1288.946455103861 399.8834895540375Q1290.4874452634008 404.75301845818416 1293.384506763336 416.74192189940595L1293.384506763336 416.74192189940595L1296.0350098377448 426.7275381332256L1296.928784130278 426.7275381332256Q1298.2540356674826 421.39571218121694 1302.6920873269582 404.9687570805197L1302.6920873269582 404.9687570805197L1304.0173388641624 400.3149667987087L1318.6567453797934 344.8393210552661L1335.5459975283525 344.8393210552661L1304.911113156696 452.2463351752092Z " fill="#d84315" transform="matrix(0.6551627072896128,0,0,0.6551627072896128,0,51.247045110323896)"/></g></svg>